<svg width="828" height="150" viewBox="0 0 828 150" fill="none" xmlns="http://www.w3.org/2000/svg">
<g clip-path="url(#clip0_4928_1680)">
<path d="M22.6445 0.0113155C26.9008 0.174643 31.4861 0.115421 35.7541 0.0611044C46.0135 -0.0697838 56.411 0.265171 66.6512 0C66.6656 6.17815 66.6112 12.5132 66.7093 18.6785C77.0287 18.671 87.5854 18.5443 97.8852 18.68C97.906 28.9123 98.1138 39.8688 97.9124 50.0532L78.0491 50.0608C74.3827 50.0627 70.3448 49.9831 66.7021 50.123C66.6358 56.016 66.5871 62.4491 66.715 68.3334C74.6875 68.5043 83.0413 68.3817 91.0417 68.3791L91.0443 99.9809C83.4992 99.8451 74.2167 99.7579 66.6999 99.9582L66.6916 130.969L59.8205 130.947L59.8296 110.649C59.8326 107.386 59.7243 103.241 59.8681 100.049C56.7037 99.8058 51.2992 99.8903 48.0281 99.9737C48.0044 116.429 47.8674 133.204 48.0553 149.641L4.01614 149.648C3.84866 141.328 4.00142 132.56 3.99727 124.202L3.97879 114.867C3.97427 113.262 3.8992 111.083 4.03537 109.555C5.99568 107.436 8.65796 104.81 10.7525 102.807C11.0898 115.95 10.6288 129.629 10.8012 142.825C20.8332 142.655 31.1488 142.861 41.2197 142.818C40.9779 132.644 41.3551 122.093 41.2269 111.885C41.1541 106.053 41.5339 98.8813 41.1412 93.1777C46.8411 93.3772 54.0969 93.3335 59.8167 93.1882L59.8164 75.1441L41.202 75.1253L41.2084 54.7539C41.2087 51.1792 41.3219 46.7388 41.1209 43.2493C47.1953 43.2561 53.7744 43.1312 59.8066 43.2655L59.8088 25.4647C53.9766 25.7412 47.2383 25.3297 41.2612 25.5322C41.2563 23.2728 41.2838 20.9353 41.2412 18.6831L59.8017 18.6751L59.8141 6.89671C53.9724 6.6753 47.4703 6.88276 41.5656 6.83938C38.2843 6.81524 32.403 6.66549 29.3636 6.9118L29.3643 92.3143L29.3688 118.548L29.3771 126.854C29.3805 127.866 29.3375 130.051 29.4413 130.955C27.2731 130.97 24.7319 130.921 22.5962 131.012C22.7418 126.088 22.5536 121.687 22.5981 116.89L22.594 61.198L22.6339 14.8666C22.6038 10.164 22.8165 4.60296 22.6445 0.0113155ZM66.7142 43.2636C69.3067 43.2617 90.577 43.4613 91.1167 43.0705C91.1175 37.428 91.2401 31.1325 91.0292 25.5447C83.2804 25.4281 74.3963 25.3535 66.6558 25.5141C66.7029 31.3713 66.5607 37.4393 66.7142 43.2636ZM66.7093 93.2037C72.2025 93.3889 78.4429 93.2478 83.9866 93.2437C84.546 92.3739 84.277 77.387 84.2095 75.1253C78.682 75.1136 72.1595 74.951 66.7101 75.1189C66.655 80.97 66.5747 87.3707 66.7093 93.2037ZM48.0353 68.35C51.8477 68.4074 56.0206 68.4613 59.822 68.3663L59.7907 50.1196C56.1662 50.0272 51.6108 49.9736 48.0006 50.1211C48.0704 56.1921 47.9621 62.2896 48.0353 68.35Z" fill="white"/>
<path d="M3.99898 18.6625C6.26595 18.6527 8.53254 18.6606 10.7991 18.6866C10.8391 31.7276 10.5905 45.4384 10.8602 58.4072C9.90592 59.6252 5.18641 64.4507 4.02539 65.2723C3.93712 49.8686 3.84885 34.0507 3.99898 18.6625Z" fill="white"/>
<path d="M0.118728 98.8236C0.751292 98.0673 1.60753 97.2021 2.32647 96.5186C6.43304 92.6153 10.4212 87.9384 14.7393 84.312C14.6077 88.9406 14.6797 94.2173 14.7114 98.8565C13.6753 100.051 11.5867 101.589 10.7535 102.807C8.6589 104.81 5.99662 107.436 4.03632 109.555C2.69537 110.935 1.60112 111.888 0.107033 113.066C0.045172 108.318 0.0493234 103.571 0.118728 98.8236Z" fill="#D4301F"/>
<path d="M10.8608 58.4074C12.0124 57.3275 13.5261 55.8187 14.6961 54.8259C14.6667 59.361 14.838 65.1359 14.6275 69.5129C13.4906 70.3703 12.5208 71.4548 11.5145 72.4615C7.73153 76.2456 3.96519 80.116 0.0570275 83.7707C0.0736243 79.3428 -0.105925 73.7123 0.0988939 69.4024C0.839714 68.6228 3.57894 65.913 4.02592 65.2725C5.18694 64.4509 9.90646 59.6254 10.8608 58.4074Z" fill="#259F48"/>
<path d="M270.679 43.1553C276.62 43.0263 282.673 43.1713 288.673 43.1224C301.001 42.9943 314.436 42.3912 324.059 51.716C335.535 62.8382 334.483 80.3155 323.956 91.4359C312.328 101.623 299.108 99.6782 284.859 99.7894C280.17 99.8268 275.48 99.7138 270.792 99.8792C270.062 83.126 270.646 60.2091 270.679 43.1553ZM281.208 90.0885C292.45 90.1907 306.959 92.1466 315.763 85.017C323.076 76.8467 323.231 65.205 315.305 57.6404C308.251 50.9075 290.658 52.7362 281.32 52.834C281.299 65.0689 281.48 77.9042 281.208 90.0885Z" fill="white"/>
<path d="M432.744 43.2283C441.283 43.0851 466.379 42.1752 472.992 44.3116C477.4 45.7347 481.623 48.7222 483.648 52.9879C485.546 56.9832 485.782 62.672 484.349 66.8434C482.425 72.4468 477.508 75.6603 472.421 78.1097C475.872 83.6375 484.289 94.1772 488.423 99.6676L479.936 99.6827C477.656 99.6863 476.282 99.954 474.768 98.0684C469.963 92.0853 465.056 85.7223 460.7 79.4199L443.039 79.4724L443.021 99.7094C439.75 99.6427 436.211 99.7121 432.919 99.7219C432.697 80.891 432.639 62.0592 432.744 43.2283ZM443.071 70.2748C451.51 70.3122 465.289 71.8758 471.464 67.1592C478.759 58.7096 471.67 53.0769 463.265 52.5557C456.86 52.1599 449.417 52.3707 442.99 52.5272C443.008 58.4267 442.982 64.3797 443.071 70.2748Z" fill="white"/>
<path d="M649.794 43.4237C651.039 43.2796 655.923 43.534 657.459 43.5901C666.565 62.3134 676.324 80.8784 685.095 99.7155C681.381 99.7333 677.665 99.7217 673.951 99.6808C672.234 95.7549 669.802 91.5069 667.847 87.5872C663.72 87.396 659.214 87.4476 655.053 87.4263C648.392 87.3462 641.731 87.4254 635.074 87.6637C633.317 91.7204 631.364 95.6375 629.42 99.607L618.619 99.6719C624.632 85.5434 632.837 71.8765 639.284 57.892C641.348 53.4156 643.75 48.4188 646.183 44.1495C647.172 43.317 648.45 43.4735 649.794 43.4237ZM639.914 78.5391L652.668 78.5961C655.892 78.5854 660.773 78.6992 663.856 78.4377C661.606 74.8507 653.1 55.7672 651.628 54.2916C647.772 62.2226 643.449 70.5334 639.914 78.5391Z" fill="white"/>
<path d="M357.004 43.1901C361.962 42.9508 368.518 43.1465 373.573 43.1492L405.31 43.2372C405.356 46.3351 405.312 49.5726 405.311 52.682C392.698 52.8021 380.075 52.5664 367.444 52.7727L367.564 66.156C378.721 66.3098 390.066 66.2306 401.246 66.2751C401.191 69.3356 401.186 72.3961 401.23 75.4567L375.146 75.4531L367.373 75.5331C367.361 80.4339 367.413 85.3355 367.526 90.2354L405.653 90.2683C405.537 93.4035 405.501 96.5413 405.543 99.6783C390.104 100.153 372.755 99.7682 357.196 99.7371C356.506 81.5599 357.4 61.6323 357.004 43.1901Z" fill="white"/>
<path d="M195.13 43.1562L243.164 43.2159C243.109 46.151 243.235 49.513 243.275 52.4819C230.662 52.682 218.048 52.3698 205.413 52.6135C205.397 57.082 205.423 61.5513 205.492 66.0198L239.266 66.0128L239.292 75.4957L214.943 75.4905L205.457 75.5402C205.397 80.448 205.413 85.3569 205.505 90.2639C217.78 89.9632 231.371 90.1908 243.674 90.2566L243.634 99.6979C227.47 99.842 211.306 99.8492 195.143 99.7211L195.13 43.1562Z" fill="white"/>
<path d="M122 43.1562L169.125 43.1731C169.057 46.3555 169.049 49.5387 169.102 52.7211C157.202 52.448 144.443 52.738 132.44 52.6829C132.482 57.7437 132.478 62.8037 132.427 67.8646L160.619 67.845L165.67 67.932L165.692 77.3698L132.426 77.4116C132.335 84.2245 132.203 93.0655 132.58 99.7789C129.108 99.7887 125.573 99.7263 122.095 99.6988L122 43.1562Z" fill="white"/>
<path d="M814.979 43.3366C818.521 43.0849 823.671 43.2885 827.34 43.3445C823.307 49.0582 818.461 55.0289 814.129 60.5798C810.232 65.3285 804.14 73.0576 800.665 77.9156C800.049 82.9222 800.41 94.217 800.445 99.6327L790.069 99.6185C789.808 93.0421 789.988 85.0017 789.914 78.2874C781.862 67.2745 769.429 54.8315 761.961 43.3223C766.305 43.2796 770.607 43.6737 774.931 43.3481C780.06 49.0894 790.951 62.9119 795.435 69.3398C796.391 67.898 797.566 66.297 798.636 64.9416C804.139 57.964 809.189 50.0491 814.979 43.3366Z" fill="white"/>
<path d="M553.223 43.1972C570.498 42.6769 590.14 43.1296 607.57 43.1866L607.549 52.7354C600.149 52.6527 592.748 52.6954 585.349 52.8626C585.169 60.9163 585.274 69.3552 585.265 77.4383L585.27 99.6891L574.96 99.6971C574.636 91.3 574.966 81.9406 574.88 73.4439C574.82 67.4225 574.527 58.8084 574.882 52.9676C568.06 52.7417 560.128 52.9026 553.227 52.8982C553.285 49.6651 553.283 46.4303 553.223 43.1972Z" fill="white"/>
<path d="M706.512 43.3093L716.774 43.3066C717.273 58.3184 716.754 74.9364 716.924 90.2078L754.301 90.214L754.247 99.7069L706.559 99.6935C706.084 81.607 706.516 61.5541 706.512 43.3093Z" fill="white"/>
<path d="M515.79 43.0859C519.124 43.1971 522.667 43.1891 526.019 43.2372C525.614 48.9544 525.836 57.2269 525.833 63.1069L525.873 99.2674C524.801 99.9087 517.633 99.7077 515.753 99.7068C515.791 80.4774 515.52 62.5537 515.79 43.0859Z" fill="white"/>
</g>
<defs>
<clipPath id="clip0_4928_1680">
<rect width="828" height="150" fill="white"/>
</clipPath>
</defs>
</svg>
