<svg width="96" height="96" viewBox="0 0 96 96" fill="none" xmlns="http://www.w3.org/2000/svg">
<path d="M32.9403 6.00635C35.3725 6.09803 37.9926 6.06479 40.4314 6.0343C46.2939 5.96083 52.2353 6.14885 58.0868 6C58.095 9.46791 58.064 13.0239 58.12 16.4846C64.0168 16.4804 70.0491 16.4092 75.9347 16.4854C75.9465 22.229 76.0653 28.3791 75.9502 34.0958L64.5998 34.1C62.5047 34.1011 60.1974 34.0564 58.1159 34.1349C58.078 37.4428 58.0502 41.0538 58.1232 44.3568C62.6789 44.4527 67.4525 44.3839 72.0241 44.3824L72.0256 62.121C67.7142 62.0448 62.4099 61.9959 58.1146 62.1083L58.1099 79.5154L54.1836 79.5029L54.1888 68.1092C54.1905 66.2779 54.1286 63.9508 54.2107 62.1594C52.4026 62.0228 49.3143 62.0702 47.4451 62.117C47.4316 71.3535 47.3533 80.7699 47.4607 89.9964L22.2956 90C22.1999 85.3297 22.2872 80.4081 22.2849 75.7166L22.2743 70.4767C22.2717 69.5758 22.2288 68.3526 22.3066 67.4951C23.4268 66.3056 24.9481 64.8316 26.145 63.7075C26.3377 71.085 26.0743 78.7629 26.1728 86.17C31.9053 86.075 37.7999 86.1906 43.5546 86.1662C43.4165 80.4553 43.632 74.5332 43.5587 68.8032C43.5171 65.5292 43.7342 61.5038 43.5098 58.3023C46.7668 58.4143 50.913 58.3897 54.1814 58.3082L54.1812 48.1798L43.5445 48.1692L43.5482 36.7343C43.5484 34.7278 43.613 32.2353 43.4982 30.2766C46.9692 30.2804 50.7287 30.2103 54.1756 30.2857L54.1769 20.2938C50.8442 20.449 46.9938 20.218 43.5783 20.3317C43.5755 19.0635 43.5913 17.7514 43.5669 16.4871L54.1728 16.4827L54.1799 9.87125C50.8418 9.74696 47.1264 9.86341 43.7523 9.83906C41.8773 9.82551 38.5166 9.74146 36.7798 9.87972L36.7875 77.2054C36.7894 77.7737 36.7649 79.0001 36.8242 79.5076C35.5852 79.5156 34.1331 79.4881 32.9127 79.5393C32.9959 76.7754 32.8884 74.305 32.9138 71.6124L32.9343 14.3449C32.917 11.7052 33.0386 8.58373 32.9403 6.00635ZM58.1228 30.2847C59.6042 30.2836 71.7586 30.3956 72.067 30.1762C72.0674 27.009 72.1375 23.4752 72.017 20.3387C67.5891 20.2733 62.5125 20.2313 58.0894 20.3215C58.1163 23.6093 58.0351 27.0154 58.1228 30.2847ZM58.12 58.3169C61.2589 58.4209 64.8248 58.3417 67.9926 58.3394C68.3123 57.8511 68.1586 49.4387 68.12 48.1692C64.9615 48.1626 61.2343 48.0714 58.1204 48.1656C58.089 51.4499 58.0431 55.0427 58.12 58.3169ZM47.4492 44.3661C49.6277 44.3983 52.0122 44.4286 54.1844 44.3752L54.1666 34.133C52.0954 34.0812 49.4923 34.0511 47.4294 34.1339C47.4693 37.5417 47.4074 40.9643 47.4492 44.3661Z" fill="#1D246C"/>
<path d="M22.286 16.4757C23.5814 16.4702 24.8766 16.4746 26.1718 16.4892C26.1946 23.8093 26.0526 31.5054 26.2067 38.7851C25.6614 39.4688 22.9645 42.1774 22.3011 42.6386C22.2506 33.9922 22.2002 25.1134 22.286 16.4757Z" fill="#1D246C"/>
<path d="M20.0673 61.4713C20.4288 61.0467 20.918 60.561 21.3289 60.1774C23.6754 57.9864 25.9544 55.3612 28.4219 53.3256C28.3466 55.9238 28.3878 58.8856 28.4059 61.4897C27.8138 62.1602 26.6211 63.0234 26.145 63.7075C24.9481 64.8316 23.4268 66.3056 22.3066 67.4951C21.5404 68.2699 20.9144 68.8045 20.0606 69.4657C20.0253 66.8009 20.0276 64.1359 20.0673 61.4713Z" fill="#D4301F"/>
<path d="M26.2067 38.7851C26.8647 38.1789 27.7291 37.3323 28.3977 36.775C28.3809 39.3206 28.4788 42.5622 28.3585 45.0191C27.7089 45.5003 27.1547 46.1091 26.5796 46.6742C24.418 48.7982 22.2658 50.9708 20.0326 53.0222C20.0421 50.5367 19.9395 47.3763 20.0565 44.957C20.4798 44.5194 22.0457 42.9981 22.3011 42.6386C22.9645 42.1774 25.6614 39.4688 26.2067 38.7851Z" fill="#259F48"/>
</svg>
