<svg width="196" height="31" viewBox="0 0 196 31" fill="none" xmlns="http://www.w3.org/2000/svg">
<g clip-path="url(#clip0_7791_6549)">
<path d="M9.89594 0.627504C10.7335 0.66013 11.6359 0.6483 12.4758 0.63745C14.4948 0.611304 16.5409 0.678213 18.5561 0.625244C18.5589 1.85936 18.5482 3.12482 18.5675 4.35637C20.5983 4.35486 22.6758 4.32955 24.7027 4.35667C24.7067 6.40062 24.7476 8.58923 24.708 10.6236L20.7991 10.6251C20.0776 10.6255 19.2829 10.6096 18.5661 10.6375C18.553 11.8147 18.5435 13.0998 18.5686 14.2752C20.1375 14.3093 21.7815 14.2848 23.3559 14.2843L23.3564 20.5969C21.8716 20.5698 20.0449 20.5524 18.5657 20.5924L18.564 26.787L17.2119 26.7825L17.2136 22.7279C17.2142 22.0762 17.1929 21.248 17.2212 20.6105C16.5985 20.5619 15.5349 20.5788 14.8912 20.5955C14.8865 23.8824 14.8596 27.2334 14.8966 30.5168L6.23004 30.5181C6.19708 28.8561 6.22714 27.1046 6.22633 25.4351L6.22269 23.5704C6.2218 23.2498 6.20703 22.8145 6.23383 22.5094C6.6196 22.0861 7.14351 21.5615 7.55571 21.1615C7.62207 23.7869 7.53136 26.5192 7.56528 29.1551C9.53949 29.1213 11.5695 29.1624 13.5514 29.1538C13.5038 27.1214 13.578 25.014 13.5528 22.9748C13.5385 21.8098 13.6132 20.3772 13.5359 19.2379C14.6576 19.2778 16.0855 19.269 17.2111 19.24L17.211 15.6356L13.5479 15.6319L13.5491 11.5626C13.5492 10.8485 13.5715 9.96153 13.5319 9.2645C14.7273 9.26585 16.022 9.24091 17.2091 9.26774L17.2096 5.71194C16.0618 5.76717 14.7358 5.68497 13.5595 5.72543C13.5586 5.2741 13.564 4.80717 13.5556 4.35727L17.2081 4.35569L17.2106 2.00289C16.061 1.95867 14.7814 2.00011 13.6194 1.99144C12.9737 1.98662 11.8163 1.95671 11.2182 2.00591L11.2209 25.9649C11.2215 26.1672 11.2131 26.6036 11.2335 26.7842C10.8068 26.787 10.3067 26.7773 9.88644 26.7955C9.91509 25.8119 9.87805 24.9328 9.88681 23.9746L9.89386 3.59491C9.88793 2.65555 9.92979 1.54471 9.89594 0.627504ZM18.5685 9.26736C19.0787 9.26698 23.2645 9.30684 23.3707 9.22878C23.3708 8.10166 23.395 6.84411 23.3535 5.72792C21.8286 5.70463 20.0802 5.68972 18.557 5.72181C18.5663 6.89181 18.5383 8.10392 18.5685 9.26736ZM18.5675 19.2431C19.6485 19.2801 20.8766 19.2519 21.9675 19.2511C22.0776 19.0774 22.0247 16.0837 22.0114 15.6319C20.9236 15.6295 19.6401 15.5971 18.5677 15.6306C18.5568 16.7994 18.541 18.0779 18.5675 19.2431ZM14.8926 14.2785C15.6429 14.2899 16.4641 14.3007 17.2122 14.2817L17.206 10.6369C16.4927 10.6184 15.5963 10.6077 14.8858 10.6372C14.8995 11.8499 14.8782 13.0679 14.8926 14.2785Z" fill="#1D246C"/>
<path d="M6.22672 4.35319C6.67284 4.35123 7.11889 4.35282 7.56493 4.35801C7.5728 6.963 7.52388 9.7018 7.57696 12.2924C7.38916 12.5357 6.4604 13.4996 6.23192 13.6637C6.21455 10.5868 6.19718 7.42706 6.22672 4.35319Z" fill="#1D246C"/>
<path d="M5.46263 20.3657C5.58711 20.2146 5.75561 20.0417 5.89709 19.9052C6.70523 19.1255 7.49006 18.1913 8.33984 17.4669C8.31393 18.3915 8.32811 19.4455 8.33435 20.3722C8.13044 20.6108 7.71968 20.918 7.55571 21.1615C7.14351 21.5615 6.6196 22.0861 6.23383 22.5094C5.96994 22.785 5.75435 22.9753 5.46033 23.2106C5.44815 22.2623 5.44897 21.3139 5.46263 20.3657Z" fill="#D4301F"/>
<path d="M7.57696 12.2924C7.80358 12.0767 8.10126 11.7754 8.33153 11.5771C8.32574 12.483 8.35944 13.6365 8.31802 14.5109C8.09429 14.6821 7.90344 14.8987 7.7054 15.0998C6.96095 15.8557 6.21977 16.6289 5.45068 17.3589C5.45394 16.4744 5.41861 15.3497 5.45891 14.4888C5.6047 14.333 6.14396 13.7917 6.23192 13.6637C6.4604 13.4996 7.38916 12.5357 7.57696 12.2924Z" fill="#259F48"/>
</g>
<path d="M68.78 9.07967C70.1297 9.05037 71.505 9.08331 72.8683 9.0722C75.669 9.0431 78.7216 8.90608 80.9079 11.0247C83.5151 13.5516 83.2763 17.5225 80.8845 20.049C78.2425 22.3634 75.239 21.9217 72.0015 21.947C70.9364 21.9554 69.8706 21.9298 68.8057 21.9674C68.6398 18.161 68.7723 12.9543 68.78 9.07967ZM71.172 19.7429C73.7263 19.7661 77.0228 20.2105 79.0231 18.5907C80.6846 16.7344 80.7198 14.0894 78.9191 12.3707C77.3162 10.841 73.3191 11.2565 71.1977 11.2787C71.1928 14.0585 71.2339 16.9746 71.172 19.7429Z" fill="#1E236E"/>
<path d="M105.602 9.09635C107.541 9.06382 113.243 8.85708 114.746 9.34247C115.747 9.6658 116.707 10.3446 117.167 11.3137C117.598 12.2215 117.652 13.514 117.326 14.4617C116.889 15.7348 115.772 16.4649 114.616 17.0214C115.4 18.2773 117.313 20.672 118.252 21.9194L116.323 21.9228C115.805 21.9236 115.493 21.9844 115.149 21.556C114.058 20.1967 112.943 18.751 111.953 17.3191L107.94 17.331L107.936 21.9289C107.193 21.9137 106.389 21.9295 105.641 21.9317C105.591 17.6533 105.577 13.3747 105.602 9.09635ZM107.948 15.2413C109.865 15.2498 112.996 15.6051 114.399 14.5334C116.056 12.6137 114.445 11.334 112.536 11.2155C111.081 11.1256 109.389 11.1735 107.929 11.2091C107.933 12.5494 107.927 13.902 107.948 15.2413Z" fill="#1E236E"/>
<path d="M154.915 9.1408C155.198 9.10806 156.308 9.16586 156.656 9.17859C158.725 13.4325 160.943 17.6505 162.935 21.9303C162.091 21.9343 161.247 21.9317 160.403 21.9224C160.013 21.0304 159.461 20.0653 159.017 19.1748C158.079 19.1313 157.055 19.143 156.11 19.1382C154.596 19.12 153.083 19.138 151.57 19.1921C151.171 20.1138 150.728 21.0038 150.286 21.9056L147.832 21.9204C149.198 18.7104 151.062 15.6053 152.527 12.428C152.996 11.4109 153.542 10.2757 154.095 9.3057C154.319 9.11656 154.609 9.15211 154.915 9.1408ZM152.67 17.119L155.568 17.132C156.3 17.1295 157.409 17.1554 158.11 17.096C157.599 16.281 155.666 11.9452 155.332 11.61C154.455 13.4119 153.473 15.3001 152.67 17.119Z" fill="#1E236E"/>
<path d="M88.3931 9.08767C89.5196 9.03332 91.0092 9.07778 92.1576 9.07839L99.3683 9.09839C99.3786 9.80223 99.3687 10.5378 99.3685 11.2442C96.5028 11.2715 93.6348 11.218 90.765 11.2649L90.7923 14.3055C93.3272 14.3405 95.9049 14.3225 98.4448 14.3326C98.4325 15.0279 98.4313 15.7233 98.4414 16.4186L92.515 16.4178L90.7489 16.436C90.7463 17.5495 90.758 18.6631 90.7836 19.7764L99.4461 19.7838C99.4198 20.4962 99.4115 21.2091 99.4212 21.9218C95.9134 22.0297 91.9719 21.9422 88.4367 21.9352C88.2799 17.8053 88.483 13.2778 88.3931 9.08767Z" fill="#1E236E"/>
<path d="M51.6149 9.08008L62.5283 9.09361C62.5158 9.76047 62.5445 10.5243 62.5536 11.1989C59.6877 11.2443 56.8218 11.1734 53.9511 11.2288C53.9477 12.244 53.9536 13.2594 53.9691 14.2747L61.6426 14.2731L61.6485 16.4276L56.1164 16.4264L53.9612 16.4377C53.9475 17.5528 53.9511 18.668 53.9722 19.7829C56.761 19.7146 59.849 19.7663 62.6441 19.7813L62.635 21.9263C58.9627 21.9591 55.2901 21.9607 51.618 21.9316L51.6149 9.08008Z" fill="#1E236E"/>
<path d="M35 9.08008L45.7068 9.08392C45.6913 9.80695 45.6896 10.5302 45.7016 11.2532C42.9979 11.1912 40.0991 11.2571 37.3719 11.2445C37.3816 12.3944 37.3806 13.544 37.3689 14.6938L43.7741 14.6893L44.9217 14.7091L44.9268 16.8534L37.3688 16.8629C37.3482 18.4108 37.3182 20.4195 37.4038 21.9447C36.615 21.947 35.8117 21.9328 35.0217 21.9265L35 9.08008Z" fill="#1E236E"/>
<path d="M192.445 9.12085C193.25 9.06367 194.42 9.10994 195.254 9.12267C194.338 10.4208 193.236 11.7774 192.252 13.0385C191.367 14.1174 189.983 15.8735 189.193 16.9772C189.053 18.1147 189.135 20.6809 189.143 21.9113L186.786 21.9081C186.727 20.414 186.768 18.5872 186.751 17.0617C184.921 14.5596 182.096 11.7325 180.4 9.11761C181.387 9.10791 182.364 9.19744 183.346 9.12348C184.512 10.4279 186.986 13.5684 188.005 15.0288C188.222 14.7012 188.489 14.3375 188.732 14.0295C189.983 12.4442 191.13 10.6459 192.445 9.12085Z" fill="#1E236E"/>
<path d="M132.974 9.08933C136.899 8.97111 141.362 9.07398 145.322 9.08691L145.317 11.2564C143.636 11.2376 141.954 11.2473 140.273 11.2853C140.232 13.1151 140.256 15.0324 140.254 16.8689L140.255 21.9243L137.913 21.9261C137.839 20.0183 137.914 17.8918 137.895 15.9614C137.881 14.5933 137.814 12.6362 137.895 11.3092C136.345 11.2578 134.543 11.2944 132.975 11.2934C132.988 10.5588 132.988 9.82388 132.974 9.08933Z" fill="#1E236E"/>
<path d="M167.801 9.11483L170.132 9.11423C170.246 12.5249 170.128 16.3005 170.167 19.7702L178.659 19.7716L178.646 21.9284L167.812 21.9253C167.704 17.8161 167.802 13.26 167.801 9.11483Z" fill="#1E236E"/>
<path d="M124.469 9.06396C125.227 9.08922 126.031 9.08741 126.793 9.09833C126.701 10.3973 126.751 12.2768 126.751 13.6127L126.76 21.8284C126.516 21.9741 124.888 21.9284 124.46 21.9282C124.469 17.5593 124.408 13.487 124.469 9.06396Z" fill="#1E236E"/>
<defs>
<clipPath id="clip0_7791_6549">
<rect width="30" height="31" fill="white"/>
</clipPath>
</defs>
</svg>
